<?xml version="1.0" encoding="UTF-8" standalone="no"?>
<!DOCTYPE svg PUBLIC "-//W3C//DTD SVG 1.1//EN" "http://www.w3.org/Graphics/SVG/1.1/DTD/svg11.dtd">
<svg width="100%" height="100%" viewBox="0 0 32 32" version="1.1" xmlns="http://www.w3.org/2000/svg" xmlns:xlink="http://www.w3.org/1999/xlink" xml:space="preserve" xmlns:serif="http://www.serif.com/" style="fill-rule:evenodd;clip-rule:evenodd;stroke-linejoin:round;stroke-miterlimit:2;">
    <g transform="matrix(1.81685,0,0,1.81685,-16.6237,-9.58637)">
        <g transform="matrix(1,0,0,1,9.1234,7.62553)">
            <path d="M1.108,3.216C1.172,2.224 1.55,1.451 2.244,0.896C2.948,0.341 3.844,0.064 4.932,0.064C5.678,0.064 6.324,0.197 6.868,0.464C7.412,0.731 7.822,1.093 8.1,1.552C8.377,2.011 8.516,2.528 8.516,3.104C8.516,3.765 8.34,4.331 7.988,4.8C7.636,5.269 7.214,5.584 6.724,5.744L6.724,5.808C7.353,6 7.844,6.352 8.196,6.864C8.548,7.365 8.724,8.011 8.724,8.8C8.724,9.429 8.58,9.989 8.292,10.48C8.004,10.971 7.577,11.36 7.012,11.648C6.446,11.925 5.769,12.064 4.98,12.064C3.828,12.064 2.878,11.771 2.132,11.184C1.396,10.587 1.001,9.733 0.948,8.624L2.708,8.624C2.75,9.189 2.969,9.653 3.364,10.016C3.758,10.368 4.292,10.544 4.964,10.544C5.614,10.544 6.116,10.368 6.468,10.016C6.82,9.653 6.996,9.189 6.996,8.624C6.996,7.877 6.756,7.349 6.276,7.04C5.806,6.72 5.081,6.56 4.1,6.56L3.684,6.56L3.684,5.056L4.116,5.056C4.98,5.045 5.636,4.901 6.084,4.624C6.542,4.347 6.772,3.909 6.772,3.312C6.772,2.8 6.606,2.395 6.276,2.096C5.945,1.787 5.476,1.632 4.868,1.632C4.27,1.632 3.806,1.787 3.476,2.096C3.145,2.395 2.948,2.768 2.884,3.216L1.108,3.216ZM12.704,0.16L12.704,12L10.88,12L10.88,0.16L12.704,0.16Z" style="fill-rule:nonzero;"/>
        </g>
        <g transform="matrix(1,0,0,1,-39.1262,7.62553)">
            <path d="M63.741,12.112C63.41,12.112 63.133,12 62.909,11.776C62.685,11.552 62.573,11.275 62.573,10.944C62.573,10.613 62.685,10.336 62.909,10.112C63.133,9.888 63.41,9.776 63.741,9.776C64.061,9.776 64.333,9.888 64.557,10.112C64.781,10.336 64.893,10.613 64.893,10.944C64.893,11.275 64.781,11.552 64.557,11.776C64.333,12 64.061,12.112 63.741,12.112Z" style="fill:rgb(108,114,117);fill-rule:nonzero;"/>
        </g>
    </g>
</svg>
